<mxfile host="app.diagrams.net" modified="2024-03-12T23:26:10.344Z" agent="Mozilla/5.0 (Windows NT 10.0; Win64; x64) AppleWebKit/537.36 (KHTML, like Gecko) Chrome/122.0.0.0 Safari/537.36" version="24.0.2" etag="0gIPNi-pz8tOIQ0Pv2jR" type="github">
  <diagram name="Page-1" id="_KdVttj6lpL8j--Ncb04">
    <mxGraphModel>
      <root>
        <mxCell id="0" />
        <mxCell id="1" parent="0" />
      </root>
    </mxGraphModel>
  </diagram>
</mxfile>
